<svg id="Capa_1" data-name="Capa 1" xmlns="http://www.w3.org/2000/svg" viewBox="0 0 98 92"><defs><style>.cls-1{fill:#8e8219;}</style></defs><title>copa</title><path class="cls-1" d="M31.94,9.27H67.3Q68.17,14.15,69,19c.88,4.88,1.7,9.77,2.63,14.64,1.22,6.42.5,12.6-2.93,18.16A21.64,21.64,0,0,1,53.26,62l-1.86.28V79.39l15.79,1.76v1.58H32l-.14-1.54c2.78-.32,5.49-.64,8.2-.94,2.25-.25,4.49-.49,6.74-.69.77-.07,1.12-.34,1.11-1.18,0-5,0-10,0-15,0-1.2-.71-1.19-1.5-1.3a21.68,21.68,0,0,1-14.5-8.2C27.32,48,26.18,41.2,27.45,34c1.37-7.83,2.78-15.65,4.18-23.48C31.69,10.09,31.82,9.72,31.94,9.27Zm4,3.34c-1,0-1.33.3-1.49,1.27-1,5.9-2.18,11.77-3.09,17.68a44.58,44.58,0,0,0-.75,9.76A18.49,18.49,0,0,0,49,58.85c12.93.3,21.37-10.63,19.56-23-1.07-7.38-2.58-14.68-3.84-22-.17-1-.54-1.27-1.51-1.26C58.68,12.66,40.52,12.66,36,12.61Z"/><path class="cls-1" d="M34,38.47a35.71,35.71,0,0,0,5,1.6,10.37,10.37,0,0,0,10.48-4.16c3.45-4.35,8-5.58,13-3.82a3,3,0,0,1,2.2,2.57c.79,4.43.55,8.68-1.61,12.71-2.44,4.54-6.37,6.93-11.32,7.7a15.56,15.56,0,0,1-15.65-7.44A16.74,16.74,0,0,1,34,38.47Z"/></svg>