<svg id="Capa_1" data-name="Capa 1" xmlns="http://www.w3.org/2000/svg" viewBox="0 0 1368.55 870.79"><defs><style>.cls-1{fill:#fff;}</style></defs><title>logo-alt</title><path class="cls-1" d="M683,202.08c13.46-3.1,19.6-16.86,19.65-44,.08-35.36-18.53-57.88-43.32-52.44L653,107v46.05c0,33,.71,46.75,2.49,48.53C658.41,204.55,671.39,204.77,683,202.08Zm19.55,131.6a44.56,44.56,0,0,0,11.13-9.29c20.95-24.9,4.16-89.72-26.56-102.56-10.76-4.49-31.56-4.38-32.46.16-.37,1.87-.2,26,.37,53.67,1.28,61.9.39,60.09,29.63,60.78C691.72,336.6,699.14,335.47,702.58,333.68Zm1.08,37.63c8.6-15.74,15.64-29.12,15.64-29.74s-3.34.86-7.43,3.27c-9.49,5.6-28.51,8.24-49.35,6.88-9.3-.61-15.91-.28-15.32.77,10.51,18.63,19.19,33.15,20.32,34a8.2,8.2,0,0,1,2.25,3.11c.46,1.13,3.15,6,6,10.83l5.18,8.77,3.53-4.62C686.42,402,695.05,387,703.66,371.31ZM495.49,449.93c0-1.75,3.26-3.27,8.59-4,15.07-2,16.08-4.35,20.52-47.26,2.17-21,4.47-40.92,5.13-44.34s3-24.88,5.21-47.67c9.71-99.89,10.13-103.31,13.22-106.4,4.46-4.46,6.37-2.23,24.86,29.08,9,15.17,19.26,32.26,22.89,38,9.6,15.09,19.77,32.25,19.77,33.34,0,.52,2.52,4.75,5.6,9.4,4.13,6.24,5.9,7.61,6.73,5.22,1.59-4.53,1-109.52-.82-161.93-1.44-39.94-1.92-43.9-5.86-48.18-2.36-2.57-6.35-4.66-8.87-4.66-5.22,0-10.21-5-8.23-8.2,1.8-2.92,72.25-2.86,85.88.06,15.36,3.29,29.7,17.41,34.46,33.93,6.48,22.52,2.06,44.32-14.36,70.77l-5.28,8.5,12.35,8.94c20.82,15.08,32.86,38.58,33.22,64.83l.12,8.7,5.58-10.71c5.87-11.27,14-26.2,32-58.69,10.47-18.88,15.79-23.87,20.46-19.2,1.06,1.06,4.26,23.3,7.11,49.41s7.08,63.33,9.39,82.71,5.51,46.42,7.07,60.1c4.86,42.28,8.9,48.94,30.55,50.26,17.44,1.07,19.71,1.87,15.88,5.66-2.92,2.88-17,3.61-63.06,3.26l-16.58-.13-.14-22.27c-.08-12.26-.69-26-1.36-30.57s-3.81-35.09-7-67.87-6.42-59.57-7.2-59.57-4.09,5.36-7.34,11.92S761,310,749.9,329.24,729.66,364.59,729.66,365s-7.93,14.3-17.61,30.83-17.62,30.6-17.62,31.26c0,3.62-16,25.57-18.65,25.55-6.81,0-10.77-5.35-43-57.59-6.56-10.66-14.52-23.56-17.68-28.67s-7.86-13.19-10.43-17.94-7.21-12.56-10.32-17.39-5.62-9.4-5.62-10.18-4.12-8-9.13-16.11-10.79-18.18-12.83-22.44-4.25-7.78-5-7.78-2.91,20.75-4.89,46.11-4.92,60.09-6.52,77.19c-2.84,30.6-2.46,43.44,1.37,45.8,1.07.66,6.24,1.82,11.5,2.57s10,2.53,10.43,4c.68,2-8,2.59-38.68,2.59C503,452.77,495.49,452.23,495.49,449.93Z"/><path class="cls-1" d="M423.28,565.93l-7,24.13H422c4.11,0,7.07-.62,8.9-1.85s3.38-3.56,4.67-6.9h1.69L431,603.43h-1.81a18.44,18.44,0,0,0,.77-4.82,5.44,5.44,0,0,0-.77-3,4.54,4.54,0,0,0-2.16-1.74,18.45,18.45,0,0,0-5.78-.58h-5.82l-5.85,20.2a17.44,17.44,0,0,0-.85,4.47,2.53,2.53,0,0,0,1.12,2c.53.41,1.81.61,3.81.61h5.43q8.75,0,14-3.08t9.48-10.75h1.7l-5.79,16.92H391.37L392,622a13.72,13.72,0,0,0,4.74-.58,6,6,0,0,0,2.62-2.08c.79-1.22,1.74-3.82,2.85-7.78l10.75-36.76a28.07,28.07,0,0,0,1.23-6.82,3.2,3.2,0,0,0-1.19-2.62c-.77-.67-2.32-1-4.63-1h-1l.5-1.7h43.81l-3.73,14.76h-1.7a22.65,22.65,0,0,0,.35-3.47,6.81,6.81,0,0,0-1.16-4,9.69,9.69,0,0,0-4.47-3.12c-1.46-.56-4.79-.85-9.94-.85Z"/><path class="cls-1" d="M483.19,582.93l-2.73,13.83H478.8c-.15-4-1-6.92-2.58-8.75a7.39,7.39,0,0,0-5.82-2.73,6.32,6.32,0,0,0-4.39,1.5,4.87,4.87,0,0,0-1.62,3.7,6.67,6.67,0,0,0,.62,2.81,17.21,17.21,0,0,0,2.89,3.78q5.81,6.4,7.51,9.63a13.18,13.18,0,0,1,1.7,6.13,11,11,0,0,1-3.89,8.28,13.74,13.74,0,0,1-9.79,3.63A22.46,22.46,0,0,1,456,623.2a7.23,7.23,0,0,0-2.31-.54,3.35,3.35,0,0,0-3.08,2.08h-1.62l2.73-14.61h1.7c.14,4.58,1.08,7.82,2.78,9.71a9.05,9.05,0,0,0,7.05,2.82,7.61,7.61,0,0,0,5.43-1.89,6.28,6.28,0,0,0,2-4.7,7.82,7.82,0,0,0-.73-3.35,39.31,39.31,0,0,0-5.32-7.48,41.09,41.09,0,0,1-5.16-7.13,10.88,10.88,0,0,1-1.16-4.78,9.75,9.75,0,0,1,3.2-7.4,11.51,11.51,0,0,1,8.17-3,14.68,14.68,0,0,1,2.62.23c.41.1,1.39.45,2.93,1a11.3,11.3,0,0,0,3.12.85,3.89,3.89,0,0,0,3.24-2.12Z"/><path class="cls-1" d="M509.71,571.79l-3.55,12.26h7.09l-.77,2.85h-7l-7.79,26.47a27.16,27.16,0,0,0-1.23,5.55,1.82,1.82,0,0,0,.35,1.19,1,1,0,0,0,.84.43,5.23,5.23,0,0,0,3-1.62,48.85,48.85,0,0,0,4.86-5.55l1.46,1.19a33.25,33.25,0,0,1-7.82,8.48,9.16,9.16,0,0,1-5.09,1.7,4.47,4.47,0,0,1-3.24-1.24,4.3,4.3,0,0,1-1.23-3.19,31.13,31.13,0,0,1,1.39-7.37l7.55-26h-6.82l.42-1.81a21.35,21.35,0,0,0,8.25-4c2.18-1.79,4.63-4.9,7.36-9.29Z"/><path class="cls-1" d="M538.69,585.28c-1.9,0-3.94.91-6.08,2.73Q528,591.8,524.4,599.3c-2.39,5-3.59,9.57-3.59,13.64a7.15,7.15,0,0,0,1.54,4.82,4.58,4.58,0,0,0,3.55,1.77q4.85,0,10.63-7.28,7.71-9.59,7.71-19.73c0-2.51-.51-4.35-1.5-5.51A5.07,5.07,0,0,0,538.69,585.28Zm16-2.35L546,613.45l-1,4.12a5.23,5.23,0,0,0-.11,1,2,2,0,0,0,.42,1.28,1.19,1.19,0,0,0,.93.38,2.89,2.89,0,0,0,1.5-.73,26.19,26.19,0,0,0,4.7-5.36l1.5,1.08a28.19,28.19,0,0,1-6.39,7.13,10.56,10.56,0,0,1-6.09,2.43,4,4,0,0,1-2.89-1,3.76,3.76,0,0,1-1-2.81,21.87,21.87,0,0,1,1-5.78l1-3.43q-5.94,7.72-10.83,10.79a13.45,13.45,0,0,1-7,2.2A7.33,7.33,0,0,1,516,622a11.08,11.08,0,0,1-2.35-7.48,32.14,32.14,0,0,1,4.23-15.1,36.78,36.78,0,0,1,11-12.76q5.11-3.76,9.71-3.77a7.16,7.16,0,0,1,4.62,1.46,9.18,9.18,0,0,1,2.78,4.78l1.62-5.12Z"/><path class="cls-1" d="M566.71,620.15a17.14,17.14,0,0,0,7.93,2.43,14.69,14.69,0,0,0,8.21-2.85q4.24-2.88,7.36-9.79a33.14,33.14,0,0,0,3.16-13.87,9.62,9.62,0,0,0-2-6.51,6.26,6.26,0,0,0-4.86-2.35,12.73,12.73,0,0,0-8.2,3.35,18.15,18.15,0,0,0-5.7,9.36Zm17.41-60.46-8.86,31.1a30.29,30.29,0,0,1,7.52-6.17,14.57,14.57,0,0,1,6.74-1.69,10.66,10.66,0,0,1,8.09,3.31,12.33,12.33,0,0,1,3.16,8.9,28.68,28.68,0,0,1-4.16,14.41,32.18,32.18,0,0,1-10.4,11.18,22.55,22.55,0,0,1-12.3,4c-4.54,0-9.22-1.7-14-5.09l13.71-47a45.32,45.32,0,0,0,1.54-6.43,2,2,0,0,0-.73-1.74,4.59,4.59,0,0,0-3-.85,19.27,19.27,0,0,0-2.89.35V562.2Z"/><path class="cls-1" d="M631,559.69l-15.37,53.53a27.14,27.14,0,0,0-1.12,4.89,1.61,1.61,0,0,0,.42,1.16,1.38,1.38,0,0,0,1,.42,2.86,2.86,0,0,0,1.85-.77,24.9,24.9,0,0,0,4.94-5.7l1.35,1.38q-4.26,6.06-7.91,8.44a9.27,9.27,0,0,1-5,1.7,3.92,3.92,0,0,1-2.86-1.16,3.83,3.83,0,0,1-1.11-2.73,32.5,32.5,0,0,1,1.38-6.63L620.82,572a47.62,47.62,0,0,0,1.42-5.93,2.22,2.22,0,0,0-.88-1.81,4.14,4.14,0,0,0-2.62-.7,23,23,0,0,0-3.12.35v-1.69Z"/><path class="cls-1" d="M640.59,604.51a38.21,38.21,0,0,0,10.82-2.66A21.25,21.25,0,0,0,659.7,596a10.78,10.78,0,0,0,2.77-6.59,4,4,0,0,0-1.19-3,4.57,4.57,0,0,0-3.35-1.2c-3.07,0-6.31,1.64-9.75,4.9S642.22,598.14,640.59,604.51Zm-.35,2.23a31.89,31.89,0,0,0-.27,3.66,9.6,9.6,0,0,0,9.71,9.67,15.36,15.36,0,0,0,6.24-1.31,50.22,50.22,0,0,0,8.86-5.89l1,1.27q-10.68,10.61-20.35,10.6-6.55,0-9.9-4.13a14.25,14.25,0,0,1-3.32-9.13,27,27,0,0,1,4.13-13.72,31.5,31.5,0,0,1,10.36-10.9,24,24,0,0,1,12.91-3.93c3.15,0,5.49.66,7,2a5.82,5.82,0,0,1,2.31,4.55,10.75,10.75,0,0,1-3,7.17q-3.9,4.47-11.48,7.2A64.59,64.59,0,0,1,640.24,606.74Z"/><path class="cls-1" d="M705.81,613.87a35.07,35.07,0,0,1-9.48,8.25,20.8,20.8,0,0,1-10.09,2.62q-6.36,0-9.94-3.59t-3.59-9.67a26.84,26.84,0,0,1,3.86-13.56,31.29,31.29,0,0,1,10.32-10.83,23.7,23.7,0,0,1,12.76-4.16c3.28,0,5.74.7,7.36,2.08a6.35,6.35,0,0,1,2.43,5,6.93,6.93,0,0,1-1.74,4.74,3.77,3.77,0,0,1-3.08,1.58,3.1,3.1,0,0,1-2.31-.93,3,3,0,0,1-.93-2.27,3.42,3.42,0,0,1,.35-1.54,6.5,6.5,0,0,1,1.39-1.74,5.89,5.89,0,0,0,1.27-1.46,2.3,2.3,0,0,0,.23-1,1.9,1.9,0,0,0-.81-1.54,6.55,6.55,0,0,0-3.7-.93,14.87,14.87,0,0,0-8.75,3.12,25.31,25.31,0,0,0-7.39,8.79,29.23,29.23,0,0,0-3.7,13.87,9.93,9.93,0,0,0,2.62,7.28,9.45,9.45,0,0,0,7.09,2.66,15,15,0,0,0,6.85-1.73,29,29,0,0,0,7.63-6.24Z"/><path class="cls-1" d="M732.31,582.93l-8.9,31.56a24.43,24.43,0,0,0-.88,3.81,1.66,1.66,0,0,0,.42,1.2,1.29,1.29,0,0,0,1,.42,2.63,2.63,0,0,0,1.61-.73,26.38,26.38,0,0,0,5.2-5.74l1.58,1a33.34,33.34,0,0,1-7.2,7.9,9.73,9.73,0,0,1-5.82,2.35,4.4,4.4,0,0,1-3-1.08,3.74,3.74,0,0,1-1.16-2.81,23,23,0,0,1,1.12-5.52l5.86-20.19a32.94,32.94,0,0,0,1.38-6.2,2.15,2.15,0,0,0-.69-1.58,2.63,2.63,0,0,0-1.85-.66,35.57,35.57,0,0,0-4.16.51v-1.7Zm-.57-17.84a4.26,4.26,0,0,1,3.16,1.31,4.36,4.36,0,0,1,1.31,3.16,4.5,4.5,0,0,1-1.31,3.2,4.27,4.27,0,0,1-3.16,1.34,4.34,4.34,0,0,1-3.2-1.34,4.42,4.42,0,0,1-1.31-3.2,4.28,4.28,0,0,1,1.31-3.16A4.33,4.33,0,0,1,731.74,565.09Z"/><path class="cls-1" d="M756.78,582.93,751,603.27a89.89,89.89,0,0,1,6.62-10.78,32.51,32.51,0,0,1,8.37-8.1,9.36,9.36,0,0,1,5-1.46,5.17,5.17,0,0,1,3.74,1.46,4.9,4.9,0,0,1,1.51,3.66,21.12,21.12,0,0,1-1.08,5.78l-3.16,11.45q7.3-13.74,13.91-19.27,3.61-3.07,7.13-3.08a4.59,4.59,0,0,1,3.43,1.42,6.28,6.28,0,0,1,1.34,4.4,19.69,19.69,0,0,1-.84,5.51L792,611.75a59.78,59.78,0,0,0-1.62,6.36,1.6,1.6,0,0,0,.38,1.08.94.94,0,0,0,.73.34,3.43,3.43,0,0,0,1.58-.84,23.19,23.19,0,0,0,4.82-5.24l1.5.92a37.62,37.62,0,0,1-4,5,20.5,20.5,0,0,1-4.89,4.28,8,8,0,0,1-3.74,1.12,3.56,3.56,0,0,1-2.66-1.08,3.7,3.7,0,0,1-1-2.62c0-1.46.62-4.37,1.85-8.71l4-14.45c.94-3.33,1.43-5.18,1.46-5.51a7.91,7.91,0,0,0,.19-1.7,2.59,2.59,0,0,0-.53-1.73,1.58,1.58,0,0,0-1.2-.66,5.93,5.93,0,0,0-4,2q-6.29,5.7-11.64,16a93.85,93.85,0,0,0-6.66,17.42h-6.82l7.74-27.21a28.33,28.33,0,0,0,1.24-5.89,2.73,2.73,0,0,0-.5-1.77,1.46,1.46,0,0,0-1.2-.62,6,6,0,0,0-3.2,1.08c-1.77,1.18-4.09,3.71-6.93,7.55a60.13,60.13,0,0,0-6.59,11q-1.14,2.47-5.36,15.88H738.4l8.33-29.17,1-3.74a4.3,4.3,0,0,0,.34-1.31,2.34,2.34,0,0,0-.88-1.77,3.45,3.45,0,0,0-2.32-.77,23.77,23.77,0,0,0-3.23.54l-.39-1.66Z"/><path class="cls-1" d="M824.64,582.93l-8.9,31.56a23.78,23.78,0,0,0-.89,3.81,1.67,1.67,0,0,0,.43,1.2,1.28,1.28,0,0,0,1,.42,2.68,2.68,0,0,0,1.62-.73,26.64,26.64,0,0,0,5.2-5.74l1.58,1a33.34,33.34,0,0,1-7.2,7.9,9.75,9.75,0,0,1-5.82,2.35,4.4,4.4,0,0,1-3-1.08,3.73,3.73,0,0,1-1.15-2.81,22.84,22.84,0,0,1,1.11-5.52l5.86-20.19a32.44,32.44,0,0,0,1.39-6.2,2.15,2.15,0,0,0-.69-1.58,2.65,2.65,0,0,0-1.85-.66,35.41,35.41,0,0,0-4.17.51v-1.7Zm-.58-17.84a4.22,4.22,0,0,1,3.16,1.31,4.32,4.32,0,0,1,1.31,3.16,4.46,4.46,0,0,1-1.31,3.2,4.23,4.23,0,0,1-3.16,1.34,4.37,4.37,0,0,1-3.2-1.34,4.46,4.46,0,0,1-1.31-3.2,4.47,4.47,0,0,1,4.51-4.47Z"/><path class="cls-1" d="M840.44,604.51a38.38,38.38,0,0,0,10.83-2.66,21.21,21.21,0,0,0,8.28-5.86,10.8,10.8,0,0,0,2.78-6.59,4,4,0,0,0-1.2-3,4.56,4.56,0,0,0-3.35-1.2q-4.59,0-9.75,4.9T840.44,604.51Zm-.35,2.23a31.89,31.89,0,0,0-.27,3.66,9.61,9.61,0,0,0,9.71,9.67,15.44,15.44,0,0,0,6.25-1.31,50.59,50.59,0,0,0,8.86-5.89l1,1.27q-10.68,10.61-20.34,10.6-6.57,0-9.91-4.13a14.3,14.3,0,0,1-3.31-9.13,27.05,27.05,0,0,1,4.12-13.72,31.62,31.62,0,0,1,10.37-10.9,24,24,0,0,1,12.91-3.93c3.15,0,5.49.66,7,2a5.82,5.82,0,0,1,2.31,4.55,10.75,10.75,0,0,1-3,7.17q-3.9,4.47-11.48,7.2A64.59,64.59,0,0,1,840.09,606.74Z"/><path class="cls-1" d="M890.41,582.93l-6,20.5q8.34-12.55,12.86-16.53t8.64-4a4.89,4.89,0,0,1,3.66,1.5,5.31,5.31,0,0,1,1.46,3.85,28,28,0,0,1-1.27,7.21l-5.47,19a21.63,21.63,0,0,0-1,4,1.59,1.59,0,0,0,.34,1,1,1,0,0,0,.77.42,2.49,2.49,0,0,0,1.31-.58A30.19,30.19,0,0,0,911,613.6l1.39.85a34,34,0,0,1-7.94,8.55,8.83,8.83,0,0,1-4.66,1.74,3.62,3.62,0,0,1-2.7-1,3.68,3.68,0,0,1-1-2.66,31.82,31.82,0,0,1,1.5-7.44l5.28-18.11a21.49,21.49,0,0,0,.93-5.24,1.91,1.91,0,0,0-.58-1.43,2,2,0,0,0-1.43-.57,6.22,6.22,0,0,0-3,1,26.75,26.75,0,0,0-6.94,6.7,97.54,97.54,0,0,0-7.59,11.87,46.9,46.9,0,0,0-3.55,8.36l-2.23,7.44H871.8l8.2-28.17a36.29,36.29,0,0,0,1.47-6.09,2.31,2.31,0,0,0-.81-1.73,2.73,2.73,0,0,0-1.93-.77,13.55,13.55,0,0,0-1.92.23l-1.7.19-.31-1.62Z"/><path class="cls-1" d="M940,571.79l-3.55,12.26h7.09l-.76,2.85h-7l-7.78,26.47a27.46,27.46,0,0,0-1.24,5.55,1.82,1.82,0,0,0,.35,1.19,1,1,0,0,0,.85.43,5.29,5.29,0,0,0,3-1.62,49.21,49.21,0,0,0,4.85-5.55l1.46,1.19q-4.15,6-7.82,8.48a9.13,9.13,0,0,1-5.08,1.7,4.47,4.47,0,0,1-3.24-1.24,4.26,4.26,0,0,1-1.24-3.19,31.13,31.13,0,0,1,1.39-7.37l7.55-26h-6.81l.42-1.81a21.3,21.3,0,0,0,8.24-4c2.18-1.79,4.64-4.9,7.37-9.29Z"/><path class="cls-1" d="M977,593.91a9.13,9.13,0,0,0-2.08-6.4,6.87,6.87,0,0,0-5.28-2.23q-6.58,0-12.17,9.48a37,37,0,0,0-5.55,18.84,9.32,9.32,0,0,0,2.16,6.59,7.17,7.17,0,0,0,5.43,2.31q6.39,0,11.95-9.4A37.64,37.64,0,0,0,977,593.91ZM984.4,597a28,28,0,0,1-3.58,13.41,27.58,27.58,0,0,1-9.94,10.48,23.83,23.83,0,0,1-12.41,3.86,13.6,13.6,0,0,1-10.06-3.93,13.88,13.88,0,0,1-3.89-10.18,26.77,26.77,0,0,1,3.77-13.29,28.79,28.79,0,0,1,10.18-10.52,23.56,23.56,0,0,1,12.29-3.89,13.1,13.1,0,0,1,9.79,3.93A13.9,13.9,0,0,1,984.4,597Z"/><path class="cls-1" d="M114.06,731.92v30.83a55.75,55.75,0,0,0,12.68,1.5q9.21,0,14.91-4.13a13.48,13.48,0,0,0,5.71-11.55q0-8.21-6.25-12.68t-17.22-4.47A63.92,63.92,0,0,0,114.06,731.92Zm0-34v28.86a56.22,56.22,0,0,0,10.52.81q20.54,0,20.54-15a13.56,13.56,0,0,0-5.93-11.71q-5.94-4.18-15.11-4.2A37.77,37.77,0,0,0,114.06,697.93Zm-21.5,70.25v-2h2.82a8.49,8.49,0,0,0,5.77-1.93q2.28-1.92,2.28-9.36V706.29c0-4.95-.73-8.06-2.16-9.32A8.58,8.58,0,0,0,95.38,695H92.56v-2h32.49q31.65,0,31.67,20.07,0,12.34-13.56,16.77,17,3.55,17,17.76a17.9,17.9,0,0,1-4.43,11.91A21.18,21.18,0,0,1,145,766.44q-6.24,1.74-17,1.74Z"/><path class="cls-1" d="M216.68,738.89l-12.76-30.36-13.06,30.36ZM247,768.18H217.37v-2c5.08-.25,7.63-1.79,7.63-4.59,0-1.61-.75-4.2-2.23-7.74L218.22,743H189.13L184,754.85a18.62,18.62,0,0,0-1.85,6.55q0,4.08,8.71,4.74v2h-23.7v-2a15.13,15.13,0,0,0,6.36-2.35q2.07-1.57,6-10.64L206,691.26h1.93l26.17,62.55q2.73,6.56,5.24,9.28c1.68,1.8,4.26,2.82,7.7,3Z"/><path class="cls-1" d="M271.62,698.24v31.29h3.12q9.93,0,15.8-4.28t5.85-12.18q0-8.12-4.89-12a17.48,17.48,0,0,0-11.17-3.89A30.46,30.46,0,0,0,271.62,698.24ZM325,768.18H305L279.48,733c-1.88.07-3.41.11-4.59.11-.61,0-1.71,0-3.27-.11v21.81q0,7.49,2.08,9.4a8.26,8.26,0,0,0,5.78,1.89h2.93v2H250.19v-2H253c3.11,0,5.21-.81,6.32-2.43s1.66-4.57,1.66-8.86V706.29q0-7.47-2.12-9.36A8.46,8.46,0,0,0,253,695h-2.85v-2h27.4a80.25,80.25,0,0,1,16.18,1.31,19.28,19.28,0,0,1,10.6,6.28,17,17,0,0,1,4.51,11.75q0,15.15-18.54,19.27l15.57,21.54q5.77,8,9.83,10.25a23.53,23.53,0,0,0,9.29,2.74Z"/><path class="cls-1" d="M347.23,698.24v31.29h3.12q9.93,0,15.8-4.28T372,713.07q0-8.12-4.9-12a17.48,17.48,0,0,0-11.17-3.89A30.56,30.56,0,0,0,347.23,698.24Zm53.41,69.94H380.56L355.09,733c-1.88.07-3.41.11-4.58.11-.62,0-1.72,0-3.28-.11v21.81q0,7.49,2.08,9.4a8.26,8.26,0,0,0,5.78,1.89H358v2H325.8v-2h2.86q4.65,0,6.32-2.43c1.09-1.61,1.65-4.57,1.65-8.86V706.29q0-7.47-2.12-9.36a8.43,8.43,0,0,0-5.85-1.89H325.8v-2h27.4a80.36,80.36,0,0,1,16.19,1.31A19.29,19.29,0,0,1,380,700.59a17,17,0,0,1,4.51,11.75q0,15.15-18.53,19.27l15.57,21.54q5.76,8,9.82,10.25a23.53,23.53,0,0,0,9.29,2.74Z"/><path class="cls-1" d="M449.88,738.89l-12.75-30.36-13.06,30.36Zm30.33,29.29H450.58v-2c5.07-.25,7.63-1.79,7.63-4.59,0-1.61-.75-4.2-2.24-7.74L451.43,743h-29.1l-5.12,11.83a18.4,18.4,0,0,0-1.85,6.55q0,4.08,8.71,4.74v2h-23.7v-2a15.13,15.13,0,0,0,6.36-2.35c1.37-1,3.37-4.6,6-10.64l26.47-61.89h1.93l26.16,62.55q2.73,6.56,5.24,9.28t7.71,3Z"/><path class="cls-1" d="M491.34,769.91h-2V744.09h2q3.8,21.48,22.35,21.47a16.42,16.42,0,0,0,10.67-3.43,10.87,10.87,0,0,0,4.28-8.86q0-6.09-6.25-10.87-14.79-8.62-24.31-14.88T488.56,711a18.15,18.15,0,0,1,6.32-14.1,22.73,22.73,0,0,1,15.68-5.67,31.88,31.88,0,0,1,12.72,2.93,13.06,13.06,0,0,0,4.39,1.39c1.92,0,3.2-1.44,3.82-4.32h2.08v26h-2.08q-1.62-11.5-7.55-16.53a20,20,0,0,0-13.22-5,14,14,0,0,0-9.4,3.35,10.26,10.26,0,0,0-3.94,8.13,11.2,11.2,0,0,0,2.66,6.63q2.7,3.51,16.07,10.71,8.24,4.43,12.49,7.28a24.06,24.06,0,0,1,7,7.32A18.07,18.07,0,0,1,538.5,749a19.06,19.06,0,0,1-6.82,15,24.56,24.56,0,0,1-16.8,6,44,44,0,0,1-13.41-2.66,27.18,27.18,0,0,0-6.78-1.61C492.89,765.64,491.77,767.07,491.34,769.91Z"/><path class="cls-1" d="M596.6,698.82v63.93a55.76,55.76,0,0,0,11.79,1.57q14.86,0,22.35-10.09a38.39,38.39,0,0,0,7.48-23.47q0-15.12-8.25-24.35t-22-9.21A47.48,47.48,0,0,0,596.6,698.82Zm-21.46,69.36v-2H578c3.15,0,5.28-.81,6.36-2.43s1.61-4.6,1.61-8.86V706.29c0-5-.71-8.13-2.11-9.36A8.58,8.58,0,0,0,578,695h-2.85v-2h30.63a86,86,0,0,1,22.08,2.5Q637.17,698,644,707.22t6.86,23a40.79,40.79,0,0,1-4.66,19.39,32.3,32.3,0,0,1-13.87,13.67q-9.23,4.9-23.62,4.9Z"/><path class="cls-1" d="M721.94,749.33l-6.47,18.85h-58v-2h2.7a8.33,8.33,0,0,0,6-2c1.38-1.36,2.08-4.41,2.08-9.17V706.1c0-5.1-.68-8.23-2-9.36s-3.36-1.7-6-1.7h-2.7v-2h58l.84,16.45h-2.19c-1-5.07-2.4-8.41-4.24-10s-5.27-2.35-10.33-2.35H678.94v29.67h16.49c3.87,0,6.75-.62,8.63-1.88s3-4.26,3.24-9h2v26.16h-2q-.75-7.59-3.82-9.36a15.78,15.78,0,0,0-8.05-1.81H678.94v24.78c0,3.57.35,5.87,1.08,6.89s2.44,1.51,5.12,1.51h12.75q7.86,0,12.34-2.51t9.51-12.22Z"/><path class="cls-1" d="M851.55,768.18H819.64v-2h2.66a8.92,8.92,0,0,0,5.74-1.78c1.49-1.17,2.24-4.25,2.24-9.21V704.91l-29,63.27h-1.85l-29.09-63.27v50.24c0,5,.67,8,2,9.21a9,9,0,0,0,6,1.78H781v2H754.87v-2h2.66a9,9,0,0,0,5.7-1.78c1.51-1.17,2.27-4.25,2.27-9.21V706q0-5.85-1.89-8.4c-1.26-1.71-4.18-2.58-8.74-2.58v-2h21.31l27.24,58.84L830.28,693h21.27v2H849a9,9,0,0,0-5.78,1.81C841.69,698,841,701.1,841,706v49.13c0,4.92.69,8,2.08,9.17a8.69,8.69,0,0,0,5.94,1.82h2.58Z"/><path class="cls-1" d="M904.53,738.89l-12.75-30.36-13.07,30.36Zm30.33,29.29H905.22v-2c5.08-.25,7.63-1.79,7.63-4.59,0-1.61-.75-4.2-2.23-7.74L906.07,743H877l-5.13,11.83A18.62,18.62,0,0,0,870,761.4q0,4.08,8.71,4.74v2H855v-2a15,15,0,0,0,6.35-2.35q2.07-1.57,6-10.64l26.47-61.89h1.93l26.16,62.55q2.73,6.56,5.24,9.28t7.71,3Z"/><path class="cls-1" d="M1015.81,768.18H983.63v-2h2.7c3.38,0,5.57-.83,6.55-2.51s1.5-4.59,1.5-8.78V732H959.47v22.89c0,4.21.28,6.84.85,7.86a6,6,0,0,0,3,2.5,10.7,10.7,0,0,0,4.24.93h2.74v2H938.05v-2h2.69q5.16,0,6.59-2.43c1-1.64,1.47-4.6,1.47-8.86V706.33c0-4.18-.29-6.8-.85-7.86a5.62,5.62,0,0,0-3-2.5,10.87,10.87,0,0,0-4.24-.93h-2.69v-2h32.21v2h-2.74a8.26,8.26,0,0,0-6,2c-1.37,1.34-2,4.43-2,9.25v21.54h34.91V706.33c0-4.21-.29-6.83-.85-7.86a6,6,0,0,0-3-2.47,10.33,10.33,0,0,0-4.2-1h-2.7v-2h32.18v2h-2.66a8.32,8.32,0,0,0-6,2c-1.37,1.34-2,4.43-2,9.25v48.52c0,4.75.61,7.83,1.85,9.21s3.31,2.08,6.24,2.08h2.66Z"/><path class="cls-1" d="M1083,731.65q0-36.33-24.43-36.34a21.06,21.06,0,0,0-12,3.55q-5.25,3.55-8.52,11.4t-3.28,19.81q0,16.38,6.28,26.12t17.58,9.75q11.92,0,18.15-9.17T1083,731.65Zm12.68-1.54q0,16.75-10.52,28.28t-26.44,11.52a35.22,35.22,0,0,1-19-5.09,36.48,36.48,0,0,1-12.9-13.9,43,43,0,0,1-4.74-20.62q0-17,10.9-28a36.1,36.1,0,0,1,26.63-11,33.18,33.18,0,0,1,18.3,5.13,38.52,38.52,0,0,1,12.87,13.91A39.94,39.94,0,0,1,1095.72,730.11Z"/><path class="cls-1" d="M1198.67,768.18h-31.91v-2h2.66a8.92,8.92,0,0,0,5.74-1.78c1.49-1.17,2.24-4.25,2.24-9.21V704.91l-29,63.27h-1.85l-29.09-63.27v50.24c0,5,.67,8,2,9.21a9,9,0,0,0,6,1.78h2.62v2H1102v-2h2.66a9,9,0,0,0,5.7-1.78c1.51-1.17,2.27-4.25,2.27-9.21V706q0-5.85-1.89-8.4c-1.26-1.71-4.18-2.58-8.74-2.58v-2h21.31l27.24,58.84L1177.4,693h21.27v2h-2.58a9,9,0,0,0-5.78,1.81c-1.5,1.19-2.24,4.25-2.24,9.17v49.13c0,4.92.69,8,2.08,9.17a8.69,8.69,0,0,0,5.94,1.82h2.58Z"/><path class="cls-1" d="M1251.64,738.89l-12.75-30.36-13.07,30.36ZM1282,768.18h-29.64v-2c5.08-.25,7.63-1.79,7.63-4.59,0-1.61-.75-4.2-2.23-7.74L1253.18,743h-29.09L1219,754.85a18.62,18.62,0,0,0-1.85,6.55q0,4.08,8.71,4.74v2h-23.69v-2a15,15,0,0,0,6.35-2.35q2.07-1.57,6-10.64l26.47-61.89h1.93L1269,753.81q2.73,6.56,5.24,9.28t7.71,3Z"/></svg>