<svg id="Capa_1" data-name="Capa 1" xmlns="http://www.w3.org/2000/svg" viewBox="0 0 98 92"><defs><style>.cls-1{fill:#8e8219;}</style></defs><title>vinedo</title><path class="cls-1" d="M49.14,18A29.25,29.25,0,1,0,78.39,47.21,29.24,29.24,0,0,0,49.14,18Zm0,57.82A28.58,28.58,0,1,1,77.73,47.21,28.58,28.58,0,0,1,49.14,75.79Z"/><path class="cls-1" d="M77.4,50.65V47.29a22,22,0,0,0-5.67-5.21h0V39.83h0a.93.93,0,0,0,1.79-.33.62.62,0,0,0,0-.19l.17,0a.93.93,0,0,0,.93-.92.89.89,0,0,0-.25-.61.91.91,0,0,0,0-1.68.91.91,0,0,0,.2-.56.93.93,0,0,0-.93-.92l-.21,0a.87.87,0,0,0,.06-.32.91.91,0,0,0-.77-.9.86.86,0,0,0,.09-.39.93.93,0,0,0-.93-.92h0a.9.9,0,0,0-.89-.68.92.92,0,0,0-.89.67h0a.91.91,0,0,0-.84,1.3.93.93,0,0,0-.77.91,1.13,1.13,0,0,0,.06.32l-.2,0a.92.92,0,0,0-.93.92.87.87,0,0,0,.2.56.91.91,0,0,0-.54.83.9.9,0,0,0,.58.84.91.91,0,0,0,.69,1.54l.16,0a1.11,1.11,0,0,0,0,.19.93.93,0,0,0,1.79.33h0v1.41A21.75,21.75,0,0,0,63.83,39V37.62h0a.93.93,0,0,0,.86.58.92.92,0,0,0,.93-.91.58.58,0,0,0,0-.19h.17a.91.91,0,0,0,.68-1.53.91.91,0,0,0,.05-1.67.94.94,0,0,0,.2-.57.92.92,0,0,0-.93-.91l-.21,0a.88.88,0,0,0,.06-.33.92.92,0,0,0-.77-.9.86.86,0,0,0,.09-.39.92.92,0,0,0-.93-.91h0a.92.92,0,0,0-1.78,0h0a.92.92,0,0,0-.93.91,1,1,0,0,0,.09.39.92.92,0,0,0-.77.9.88.88,0,0,0,.06.33l-.21,0a.92.92,0,0,0-.92.91.88.88,0,0,0,.2.57.9.9,0,0,0,0,1.67.91.91,0,0,0,.68,1.53h.17a1.11,1.11,0,0,0,0,.19.93.93,0,0,0,1.79.33h0v1.16A23.21,23.21,0,0,0,60,38.65a21.94,21.94,0,0,0-4.62.5V37.62h0a.93.93,0,0,0,1.79-.33,1.11,1.11,0,0,0,0-.19h.16A.91.91,0,0,0,58,35.58a.9.9,0,0,0,0-1.67.88.88,0,0,0,.2-.57.92.92,0,0,0-.93-.91l-.21,0a.88.88,0,0,0,.07-.32.93.93,0,0,0-.77-.91,1,1,0,0,0,.09-.39.92.92,0,0,0-.93-.91h0a.92.92,0,0,0-.89-.68.94.94,0,0,0-.9.68h0a.92.92,0,0,0-.93.91.86.86,0,0,0,.09.39.92.92,0,0,0-.77.91.87.87,0,0,0,.06.32l-.21,0a.92.92,0,0,0-.93.91.94.94,0,0,0,.2.57.91.91,0,0,0,0,1.67.91.91,0,0,0,.69,1.53h.17a.58.58,0,0,0,0,.19.92.92,0,0,0,.92.91.93.93,0,0,0,.87-.58h0v1.91a21.45,21.45,0,0,0-4.31,1.77V33.63l-1.5-.92h0V30.57H46.49v1.15l-3.16-1.95L37.1,33.63V43.2A37.69,37.69,0,0,0,21.18,50v1.13c5.93-4.71,13.4-6.41,21.53-6.59h2c11.48.35,22.22-3.36,28.52,5.26h2.31c-5.62-8.32-15.2-4.8-25.58-6.56A20,20,0,0,1,77.4,50.65ZM47.88,42.31v.54h-3.2V39.19H42.15v3.66H38.79v-8.3h9.09v7.76Z"/><path class="cls-1" d="M77.4,50.65V47.29a22,22,0,0,0-5.67-5.21h0V39.83h0a.93.93,0,0,0,1.79-.33.62.62,0,0,0,0-.19l.17,0a.93.93,0,0,0,.93-.92.89.89,0,0,0-.25-.61.91.91,0,0,0,0-1.68.91.91,0,0,0,.2-.56.93.93,0,0,0-.93-.92l-.21,0a.87.87,0,0,0,.06-.32.91.91,0,0,0-.77-.9.86.86,0,0,0,.09-.39.93.93,0,0,0-.93-.92h0a.9.9,0,0,0-.89-.68.92.92,0,0,0-.89.67h0a.91.91,0,0,0-.84,1.3.93.93,0,0,0-.77.91,1.13,1.13,0,0,0,.06.32l-.2,0a.92.92,0,0,0-.93.92.87.87,0,0,0,.2.56.91.91,0,0,0-.54.83.9.9,0,0,0,.58.84.91.91,0,0,0,.69,1.54l.16,0a1.11,1.11,0,0,0,0,.19.93.93,0,0,0,1.79.33h0v1.41A21.75,21.75,0,0,0,63.83,39V37.62h0a.93.93,0,0,0,.86.58.92.92,0,0,0,.93-.91.58.58,0,0,0,0-.19h.17a.91.91,0,0,0,.68-1.53.91.91,0,0,0,.05-1.67.94.94,0,0,0,.2-.57.92.92,0,0,0-.93-.91l-.21,0a.88.88,0,0,0,.06-.33.92.92,0,0,0-.77-.9.86.86,0,0,0,.09-.39.92.92,0,0,0-.93-.91h0a.92.92,0,0,0-1.78,0h0a.92.92,0,0,0-.93.91,1,1,0,0,0,.09.39.92.92,0,0,0-.77.9.88.88,0,0,0,.06.33l-.21,0a.92.92,0,0,0-.92.91.88.88,0,0,0,.2.57.9.9,0,0,0,0,1.67.91.91,0,0,0,.68,1.53h.17a1.11,1.11,0,0,0,0,.19.93.93,0,0,0,1.79.33h0v1.16A23.21,23.21,0,0,0,60,38.65a21.94,21.94,0,0,0-4.62.5V37.62h0a.93.93,0,0,0,1.79-.33,1.11,1.11,0,0,0,0-.19h.16A.91.91,0,0,0,58,35.58a.9.9,0,0,0,0-1.67.88.88,0,0,0,.2-.57.92.92,0,0,0-.93-.91l-.21,0a.88.88,0,0,0,.07-.32.93.93,0,0,0-.77-.91,1,1,0,0,0,.09-.39.92.92,0,0,0-.93-.91h0a.92.92,0,0,0-.89-.68.94.94,0,0,0-.9.68h0a.92.92,0,0,0-.93.91.86.86,0,0,0,.09.39.92.92,0,0,0-.77.91.87.87,0,0,0,.06.32l-.21,0a.92.92,0,0,0-.93.91.94.94,0,0,0,.2.57.91.91,0,0,0,0,1.67.91.91,0,0,0,.69,1.53h.17a.58.58,0,0,0,0,.19.92.92,0,0,0,.92.91.93.93,0,0,0,.87-.58h0v1.91a21.45,21.45,0,0,0-4.31,1.77V33.63l-1.5-.92h0V30.57H46.49v1.15l-3.16-1.95L37.1,33.63V43.2A37.69,37.69,0,0,0,21.18,50v1.13c5.93-4.71,13.4-6.41,21.53-6.59h2c11.48.35,22.22-3.36,28.52,5.26h2.31c-5.62-8.32-15.2-4.8-25.58-6.56A20,20,0,0,1,77.4,50.65ZM47.88,42.31v.54h-3.2V39.19H42.15v3.66H38.79v-8.3h9.09v7.76Z"/><path class="cls-1" d="M49,45.34l29.05,1.89a33.42,33.42,0,0,1-.48,4ZM75.16,58.91a30.24,30.24,0,0,0,1.44-3.75L49,45.34ZM65.27,71a29.81,29.81,0,0,0,3-2.48L49,45.34Zm-6.79,3.61A27.61,27.61,0,0,0,62,73L49,45.34ZM51,76.21a29.25,29.25,0,0,0,3.77-.54L49,45.34ZM49,45.34h0l22,20.3a30.87,30.87,0,0,0,2.31-3.22L49,45.34ZM43.44,75.72a26.43,26.43,0,0,0,3.78.51L49,45.34Zm-7.2-2.56a28.15,28.15,0,0,0,3.52,1.53L49,45.34Zm-6.33-4.47a29.6,29.6,0,0,0,3,2.46L49,45.34Zm-5-6a30.78,30.78,0,0,0,2.33,3.2L49,45.34Zm-3.39-7.23A31.08,31.08,0,0,0,23,59.15L49,45.34ZM20,47.5a33,33,0,0,0,.51,4L49,45.34Z"/></svg>